<?xml version="1.0" encoding="utf-8"?>
<!-- Generator: Adobe Illustrator 16.0.0, SVG Export Plug-In . SVG Version: 6.00 Build 0)  -->
<!DOCTYPE svg PUBLIC "-//W3C//DTD SVG 1.1//EN" "http://www.w3.org/Graphics/SVG/1.1/DTD/svg11.dtd">
<svg version="1.1" id="Layer_1" xmlns="http://www.w3.org/2000/svg" xmlns:xlink="http://www.w3.org/1999/xlink" x="0px" y="0px"
	 width="64px" height="64px" viewBox="-27.871 -23.643 64 64" enable-background="new -27.871 -23.643 64 64" xml:space="preserve">
<g>
	<path d="M-10.765,40.359c-0.141,0-0.286-0.038-0.425-0.102c-0.424-0.213-0.628-0.707-0.479-1.159l9.653-28.812h-8.75
		c-0.307,0-0.597-0.149-0.776-0.401c-0.181-0.253-0.222-0.578-0.123-0.87l10.975-31.269c0.129-0.367,0.469-0.619,0.864-0.636
		l18.789-0.75c0.366-0.034,0.681,0.164,0.863,0.467c0.18,0.299,0.18,0.677,0,0.976L5.812,1.162h9.135
		c0.359,0,0.681,0.198,0.853,0.512c0.165,0.314,0.143,0.697-0.063,0.989l-25.708,37.28C-10.156,40.212-10.458,40.359-10.765,40.359z
		 M-9.414,8.375h8.724c0.305,0,0.596,0.149,0.776,0.398c0.182,0.245,0.227,0.566,0.127,0.862l-7.918,23.648l20.83-30.215H4.124
		c-0.348,0-0.662-0.184-0.836-0.482C3.119,2.287,3.123,1.92,3.304,1.625L17.273-21.66L0.898-21.01L-9.414,8.375z"/>
</g>
</svg>
