<?xml version="1.0" encoding="utf-8"?>
<!-- Generator: Adobe Illustrator 16.0.0, SVG Export Plug-In . SVG Version: 6.00 Build 0)  -->
<!DOCTYPE svg PUBLIC "-//W3C//DTD SVG 1.1//EN" "http://www.w3.org/Graphics/SVG/1.1/DTD/svg11.dtd">
<svg version="1.1" id="Layer_1" xmlns="http://www.w3.org/2000/svg" xmlns:xlink="http://www.w3.org/1999/xlink" x="0px" y="0px"
	 width="64px" height="64px" viewBox="-27.086 -25.557 64 64" enable-background="new -27.086 -25.557 64 64" xml:space="preserve">
<g>
	<g>
		<g>
			<path d="M-3.091,23.873h-15.19c-0.501,0-0.952-0.301-1.146-0.766c-0.188-0.46-0.084-0.993,0.274-1.352l16.19-16.186
				c0.487-0.484,1.271-0.484,1.751,0c0.487,0.48,0.487,1.264,0,1.754L-15.29,21.398h11.682L12.222,5.566
				c0.489-0.484,1.275-0.484,1.76,0c0.483,0.48,0.483,1.265,0,1.754L-2.212,23.51C-2.447,23.742-2.764,23.873-3.091,23.873z"/>
		</g>
		<g>
			<path d="M13.099,7.678c-0.31,0-0.629-0.116-0.877-0.358L-3.607-8.512H-15.29L-1.216,5.566c0.487,0.48,0.487,1.265,0,1.754
				c-0.48,0.479-1.265,0.479-1.751,0L-19.153-8.876c-0.358-0.349-0.462-0.887-0.274-1.347c0.194-0.47,0.645-0.766,1.146-0.766h15.19
				c0.327,0,0.645,0.131,0.879,0.363l16.193,16.19c0.483,0.48,0.483,1.265,0,1.754C13.738,7.562,13.419,7.678,13.099,7.678z"/>
		</g>
	</g>
	<g>
		<path d="M28.089,38.402H5.937c-0.683,0-1.24-0.552-1.24-1.235c0-0.683,0.557-1.234,1.24-1.234h20.911v-58.973H5.937
			c-0.683,0-1.24-0.557-1.24-1.24c-0.005-0.688,0.557-1.236,1.24-1.236h22.152c0.687,0,1.239,0.547,1.239,1.241v61.442
			C29.328,37.845,28.771,38.402,28.089,38.402z"/>
	</g>
</g>
</svg>
