<?xml version="1.0" encoding="utf-8"?>
<!-- Generator: Adobe Illustrator 16.0.0, SVG Export Plug-In . SVG Version: 6.00 Build 0)  -->
<!DOCTYPE svg PUBLIC "-//W3C//DTD SVG 1.1//EN" "http://www.w3.org/Graphics/SVG/1.1/DTD/svg11.dtd">
<svg version="1.1" id="Layer_1" xmlns="http://www.w3.org/2000/svg" xmlns:xlink="http://www.w3.org/1999/xlink" x="0px" y="0px"
	 width="64px" height="64px" viewBox="-24.102 -24.102 64 64" enable-background="new -24.102 -24.102 64 64" xml:space="preserve">
<g>
	<g>
		<path d="M7.9,39.631c-13.333,0-25.339-8.42-29.862-20.959c-0.188-0.525,0.084-1.091,0.604-1.287
			c0.518-0.188,1.093,0.087,1.281,0.604C-15.834,29.735-4.589,37.63,7.9,37.63C24.298,37.63,37.63,24.298,37.63,7.9
			c0-16.396-13.332-29.729-29.729-29.729c-16.058,0-29.184,12.796-29.713,28.725h39.328c0.553,0,0.996,0.447,0.996,1.004
			c0,0.559-0.443,1.004-0.996,1.004h-40.344c-0.555,0-1.004-0.445-1.004-1.004c0-17.5,14.238-31.734,31.734-31.734
			S39.631-9.6,39.631,7.9C39.631,25.396,25.396,39.631,7.9,39.631z"/>
	</g>
	<g>
		<path d="M9.346,17.063c-0.257,0-0.514-0.095-0.71-0.29c-0.394-0.4-0.394-1.028,0-1.421L16.09,7.9L8.636,0.452
			c-0.394-0.395-0.394-1.028,0-1.418c0.391-0.392,1.024-0.392,1.421,0l8.152,8.161c0.4,0.392,0.4,1.028,0,1.418l-8.152,8.161
			C9.858,16.969,9.6,17.063,9.346,17.063z"/>
	</g>
</g>
</svg>
