<?xml version="1.0" encoding="utf-8"?>
<!-- Generator: Adobe Illustrator 16.0.0, SVG Export Plug-In . SVG Version: 6.00 Build 0)  -->
<!DOCTYPE svg PUBLIC "-//W3C//DTD SVG 1.1//EN" "http://www.w3.org/Graphics/SVG/1.1/DTD/svg11.dtd">
<svg version="1.1" id="Layer_1" xmlns="http://www.w3.org/2000/svg" xmlns:xlink="http://www.w3.org/1999/xlink" x="0px" y="0px"
	 width="64px" height="64px" viewBox="-24.755 -25.207 64 64" enable-background="new -24.755 -25.207 64 64" xml:space="preserve">
<g>
	<g>
		<g>
			<path d="M38.054,5.906h-9.604c-0.611,0-1.102-0.493-1.102-1.101c0-0.606,0.49-1.101,1.102-1.101h8.512v-4.931L7.245-20.713
				l-29.707,19.49V3.71h8.51c0.606,0,1.101,0.488,1.101,1.101c0,0.606-0.494,1.101-1.101,1.101h-9.611
				c-0.608-0.006-1.101-0.499-1.101-1.101v-6.63c0-0.37,0.185-0.718,0.497-0.92L6.645-22.946c0.366-0.238,0.836-0.238,1.207,0
				L38.664-2.739c0.31,0.202,0.49,0.55,0.49,0.92v6.624C39.154,5.413,38.659,5.906,38.054,5.906z"/>
		</g>
		<g>
			<path d="M34.415,36.711H-19.92c-0.608,0-1.101-0.486-1.101-1.101V9.779c0-0.611,0.493-1.102,1.101-1.102
				c0.606,0,1.101,0.49,1.101,1.102v24.739H33.31V9.779c0-0.611,0.49-1.102,1.101-1.102c0.603,0,1.101,0.49,1.101,1.102v25.832
				C35.516,36.225,35.013,36.711,34.415,36.711z"/>
		</g>
	</g>
</g>
</svg>
