<?xml version="1.0" encoding="utf-8"?>
<!-- Generator: Adobe Illustrator 16.0.0, SVG Export Plug-In . SVG Version: 6.00 Build 0)  -->
<!DOCTYPE svg PUBLIC "-//W3C//DTD SVG 1.1//EN" "http://www.w3.org/Graphics/SVG/1.1/DTD/svg11.dtd">
<svg version="1.1" id="Layer_1" xmlns="http://www.w3.org/2000/svg" xmlns:xlink="http://www.w3.org/1999/xlink" x="0px" y="0px"
	 width="64px" height="64px" viewBox="-24.601 -24.601 64 64" enable-background="new -24.601 -24.601 64 64" xml:space="preserve">
<g>
	<g>
		<path d="M34.031,30.613c-0.604,0-1.098-0.489-1.098-1.094v-44.236c0-0.606,0.493-1.096,1.098-1.096
			c0.609,0,1.103,0.49,1.103,1.096v44.231C35.133,30.12,34.635,30.613,34.031,30.613z"/>
	</g>
	<g>
		<path d="M29.514-18.135h-44.227c-0.607,0-1.098-0.492-1.098-1.099c0-0.611,0.491-1.098,1.098-1.098h44.227
			c0.609,0,1.099,0.487,1.099,1.098C30.613-18.627,30.119-18.135,29.514-18.135z"/>
	</g>
	<g>
		<path d="M-19.234,30.613c-0.606,0-1.098-0.489-1.098-1.094v-44.236c0-0.606,0.492-1.096,1.098-1.096s1.098,0.49,1.098,1.096
			v44.231C-18.136,30.12-18.627,30.613-19.234,30.613z"/>
	</g>
	<g>
		<path d="M29.514,35.133h-44.227c-0.607,0-1.098-0.489-1.098-1.102c0-0.605,0.491-1.099,1.098-1.099h44.227
			c0.609,0,1.099,0.493,1.099,1.099C30.613,34.64,30.119,35.133,29.514,35.133z"/>
	</g>
	<g>
		<path d="M-14.717-13.619h-9.038c-0.606,0-1.098-0.49-1.098-1.094v-9.042c0-0.607,0.492-1.099,1.098-1.099h9.038
			c0.604,0,1.098,0.492,1.098,1.099v9.042C-13.619-14.108-14.113-13.619-14.717-13.619z M-22.661-15.813h6.845v-6.843h-6.845
			V-15.813z"/>
	</g>
	<g>
		<path d="M38.552-13.619h-9.038c-0.608,0-1.098-0.49-1.098-1.094v-9.042c0-0.607,0.489-1.099,1.098-1.099h9.038
			c0.608,0,1.099,0.492,1.099,1.099v9.042C39.651-14.108,39.161-13.619,38.552-13.619z M30.613-15.813h6.841v-6.843h-6.841V-15.813z
			"/>
	</g>
	<g>
		<path d="M-14.717,39.651h-9.038c-0.606,0-1.098-0.485-1.098-1.099v-9.033c0-0.613,0.492-1.099,1.098-1.099h9.038
			c0.604,0,1.098,0.485,1.098,1.099v9.033C-13.619,39.166-14.113,39.651-14.717,39.651z M-22.661,37.454h6.845v-6.836h-6.845V37.454
			z"/>
	</g>
	<g>
		<path d="M38.552,39.651h-9.038c-0.608,0-1.098-0.485-1.098-1.099v-9.033c0-0.613,0.489-1.099,1.098-1.099h9.038
			c0.608,0,1.099,0.485,1.099,1.099v9.033C39.651,39.166,39.161,39.651,38.552,39.651z M30.613,37.454h6.841v-6.836h-6.841V37.454z"
			/>
	</g>
</g>
</svg>
