<?xml version="1.0" encoding="utf-8"?>
<!-- Generator: Adobe Illustrator 26.3.1, SVG Export Plug-In . SVG Version: 6.00 Build 0)  -->
<svg version="1.1" xmlns="http://www.w3.org/2000/svg" xmlns:xlink="http://www.w3.org/1999/xlink" x="0px" y="0px"
	 viewBox="0 0 1996 517.2" style="enable-background:new 0 0 1996 517.2;" xml:space="preserve">
<style type="text/css">
	.st0{fill:#10B4E9;}
	.st1{fill:#636466;}
</style>
<g id="Rhombus">
</g>
<g id="Safe_area">
</g>
<g id="Artwork">
	<g>
		<g>
			<path class="st0" d="M86,304c0.8,0,1.6,0.3,2.3,1l6,6.5c-4.6,5.3-10.2,9.5-16.8,12.5c-6.6,3-14.5,4.5-23.8,4.5
				c-8.1,0-15.5-1.4-22.1-4.2c-6.6-2.8-12.2-6.7-16.9-11.8c-4.7-5.1-8.3-11.1-10.8-18.2C1.3,287.2,0,279.5,0,271
				c0-8.5,1.4-16.3,4.1-23.3c2.7-7.1,6.6-13.2,11.6-18.2c5-5.1,10.9-9,17.9-11.8c6.9-2.8,14.6-4.2,23-4.2c8.3,0,15.4,1.3,21.4,3.9
				c6,2.6,11.3,6,16,10.4l-5,7c-0.4,0.5-0.8,1-1.2,1.3c-0.5,0.3-1.2,0.5-2,0.5c-0.7,0-1.4-0.3-2.2-0.8c-0.7-0.5-1.7-1.1-2.7-1.8
				c-1.1-0.7-2.3-1.5-3.7-2.4c-1.4-0.8-3.1-1.6-5-2.3c-1.9-0.7-4.2-1.3-6.8-1.8c-2.6-0.5-5.5-0.8-8.9-0.8c-6,0-11.5,1-16.6,3.1
				c-5,2.1-9.3,5-12.9,8.8c-3.6,3.8-6.4,8.5-8.4,14c-2,5.5-3,11.7-3,18.5c0,7,1,13.3,3,18.8c2,5.5,4.8,10.1,8.2,13.9
				c3.5,3.8,7.6,6.7,12.4,8.7c4.8,2,9.9,3,15.4,3c3.4,0,6.4-0.2,9-0.6c2.7-0.4,5.1-1,7.4-1.8c2.3-0.8,4.4-1.9,6.4-3.2
				c2-1.3,3.9-2.8,5.9-4.6C84.3,304.4,85.1,304,86,304"/>
			<path class="st0" d="M297.4,271c0,8.4-1.4,16.2-4,23.2c-2.7,7.1-6.5,13.1-11.3,18.2c-4.9,5.1-10.7,9-17.6,11.8
				c-6.8,2.8-14.4,4.2-22.7,4.2c-8.3,0-15.8-1.4-22.6-4.2c-6.8-2.8-12.7-6.7-17.5-11.8c-4.9-5.1-8.6-11.2-11.3-18.2
				c-2.7-7.1-4-14.8-4-23.2c0-8.4,1.3-16.2,4-23.2c2.7-7,6.4-13.1,11.3-18.2c4.9-5.1,10.7-9.1,17.5-11.9c6.8-2.8,14.4-4.2,22.6-4.2
				c8.3,0,15.8,1.4,22.7,4.2c6.8,2.8,12.7,6.8,17.6,11.9c4.9,5.1,8.6,11.2,11.3,18.2C296.1,254.9,297.4,262.6,297.4,271 M281.8,271
				c0-6.9-0.9-13.1-2.8-18.6c-1.9-5.5-4.6-10.1-8-14c-3.5-3.8-7.7-6.7-12.6-8.8c-4.9-2-10.4-3.1-16.5-3.1c-6,0-11.5,1-16.4,3.1
				c-4.9,2-9.1,5-12.6,8.8c-3.5,3.8-6.2,8.4-8.1,13.9c-1.9,5.5-2.8,11.7-2.8,18.6c0,6.9,0.9,13.1,2.8,18.6
				c1.9,5.5,4.6,10.1,8.1,13.9c3.5,3.8,7.7,6.7,12.6,8.7c4.9,2,10.4,3,16.4,3c6.1,0,11.6-1,16.5-3c4.9-2,9.1-4.9,12.6-8.7
				c3.5-3.8,6.1-8.4,8-13.9C280.8,284.1,281.8,277.9,281.8,271"/>
			<path class="st0" d="M454.1,290.6c0.5,1.4,1.1,2.8,1.6,4.2c0.5-1.5,1.1-2.9,1.7-4.2c0.6-1.3,1.2-2.7,2-4.1l38.1-69.2
				c0.7-1.2,1.4-1.9,2.1-2.2c0.7-0.3,1.8-0.4,3.1-0.4l11.2,0l0,112.6l-13.4,0l0-82.7c0-1.1,0-2.3,0.1-3.5c0-1.3,0.1-2.5,0.2-3.9
				l-38.6,70.4c-1.3,2.4-3.1,3.5-5.5,3.5h-2.2c-2.4,0-4.2-1.2-5.5-3.5L409.7,237c0.2,1.4,0.3,2.7,0.4,4c0.1,1.3,0.1,2.5,0.1,3.6
				l0,82.7h-13.4l0-112.6h11.2c1.4,0,2.4,0.1,3.1,0.4c0.7,0.3,1.4,1,2.1,2.2l38.9,69.3C452.9,287.9,453.6,289.2,454.1,290.6"/>
			<path class="st0" d="M636.7,285.2l0,42.1h-15.2l0-112.6h33.2c7.1,0,13.3,0.8,18.6,2.5c5.3,1.7,9.6,4,13.1,7c3.5,3,6,6.7,7.7,11
				c1.7,4.3,2.6,9.1,2.6,14.4c0,5.2-0.9,10-2.8,14.4c-1.8,4.4-4.5,8.1-8.1,11.2c-3.5,3.1-7.9,5.6-13.2,7.3c-5.2,1.8-11.2,2.6-18,2.6
				L636.7,285.2z M636.7,273.1h18.1c4.3,0,8.2-0.6,11.5-1.7c3.3-1.2,6.1-2.8,8.4-4.8c2.3-2.1,4-4.5,5.1-7.4c1.2-2.9,1.7-6.1,1.7-9.5
				c0-7.2-2.2-12.8-6.6-16.8c-4.4-4-11.1-6-20.1-6l-18.1,0L636.7,273.1z"/>
			<polygon class="st0" points="809.8,314.6 858.6,314.6 858.5,327.4 794.6,327.4 794.6,214.8 809.9,214.8 			"/>
			<polygon class="st0" points="1023.3,214.8 1023.3,227.2 969.3,227.2 969.3,264.6 1013,264.6 1013,276.6 969.3,276.6 969.3,315 
				1023.3,315 1023.3,327.4 953.9,327.4 954,214.8 			"/>
			<polygon class="st0" points="1200.5,214.8 1200.5,227.7 1164.2,227.6 1164.1,327.4 1148.9,327.4 1148.9,227.6 1112.4,227.6 
				1112.4,214.8 			"/>
			<polygon class="st0" points="1364.5,214.9 1364.5,227.3 1310.5,227.3 1310.5,264.7 1354.2,264.7 1354.2,276.6 1310.5,276.6 
				1310.5,315 1364.5,315.1 1364.5,327.5 1295.1,327.5 1295.2,214.9 			"/>
		</g>
		<g>
			<path class="st1" d="M637.7,497.8c3.7,0,6.9-0.3,9.7-0.9c2.8-0.6,5.5-1.5,8-2.5V477h-11.3c-1.7,0-3-0.5-3.9-1.3
				c-0.9-0.9-1.4-2-1.4-3.4v-14.6h40.7l0,48.3c-2.9,2.2-6,4-9.2,5.5c-3.2,1.5-6.5,2.8-10.1,3.8c-3.6,1-7.4,1.7-11.5,2.2
				c-4.1,0.5-8.4,0.7-13.1,0.7c-8.4,0-16.1-1.5-23.2-4.4c-7.1-3-13.3-7-18.5-12.3c-5.2-5.2-9.3-11.4-12.3-18.5
				c-3-7.1-4.4-14.9-4.4-23.3c0-8.5,1.4-16.4,4.3-23.5c2.8-7.2,6.9-13.3,12.1-18.5c5.3-5.2,11.6-9.2,19.1-12.1
				c7.5-2.9,15.8-4.3,25-4.3c4.8,0,9.2,0.4,13.4,1.2c4.2,0.8,8.1,1.8,11.6,3.2c3.5,1.4,6.8,3,9.7,4.9c2.9,1.9,5.6,3.9,7.9,6.1
				l-7.7,11.7c-0.7,1.1-1.6,2-2.6,2.6c-1,0.6-2.1,0.9-3.3,0.9c-1.6,0-3.2-0.5-4.9-1.6c-2.1-1.3-4.1-2.3-5.9-3.3
				c-1.9-0.9-3.8-1.7-5.7-2.2c-1.9-0.6-4-1-6.1-1.3c-2.2-0.3-4.6-0.4-7.2-0.4c-5,0-9.5,0.9-13.5,2.6c-4,1.8-7.4,4.2-10.2,7.4
				c-2.8,3.2-5,7-6.5,11.5c-1.5,4.5-2.3,9.5-2.3,15c0,6.1,0.8,11.5,2.5,16.2c1.7,4.7,4,8.7,7,11.9c3,3.3,6.5,5.7,10.5,7.4
				C628.4,496.9,632.9,497.8,637.7,497.8"/>
			<polygon class="st1" points="800.8,495.7 843.2,495.8 843.2,517 774.2,517 774.3,402.5 800.8,402.5 			"/>
			<path class="st1" d="M1040.9,517h-20.6c-2.3,0-4.2-0.5-5.7-1.6c-1.5-1.1-2.5-2.5-3.1-4.1l-6.8-20l-43.5,0l-6.8,20
				c-0.5,1.5-1.6,2.8-3.1,4c-1.5,1.2-3.4,1.8-5.6,1.8h-20.7l44.3-114.5h27.2L1040.9,517z M967.4,473.2l31.3,0l-10.5-31.4
				c-0.7-2-1.5-4.3-2.4-7c-0.9-2.7-1.8-5.6-2.7-8.7c-0.8,3.2-1.7,6.2-2.6,8.9c-0.9,2.7-1.7,5.1-2.5,7.1L967.4,473.2z"/>
			<path class="st1" d="M1192.6,425.8c-0.8,1.3-1.6,2.2-2.5,2.8c-0.9,0.6-2,0.9-3.3,0.9c-1.2,0-2.5-0.4-3.9-1.1
				c-1.4-0.7-3-1.6-4.7-2.6c-1.8-1-3.8-1.8-6-2.6c-2.2-0.8-4.8-1.1-7.7-1.1c-5,0-8.7,1.1-11.1,3.2c-2.4,2.1-3.6,5-3.6,8.6
				c0,2.3,0.7,4.2,2.2,5.7c1.5,1.5,3.4,2.8,5.8,3.9c2.4,1.1,5.1,2.1,8.2,3c3.1,0.9,6.2,1.9,9.4,3.1c3.2,1.1,6.3,2.4,9.4,4
				c3.1,1.5,5.8,3.5,8.2,5.8c2.4,2.4,4.3,5.2,5.8,8.6c1.5,3.4,2.2,7.4,2.2,12.2c0,5.3-0.9,10.2-2.8,14.9c-1.8,4.6-4.5,8.6-8,12.1
				c-3.5,3.4-7.8,6.1-12.9,8.1c-5.1,2-10.9,2.9-17.4,2.9c-3.6,0-7.2-0.4-10.9-1.1c-3.7-0.7-7.3-1.8-10.7-3.1
				c-3.5-1.3-6.7-2.9-9.7-4.7c-3-1.8-5.7-3.9-7.9-6.1l7.9-12.4c0.6-0.9,1.4-1.7,2.4-2.3c1.1-0.6,2.2-0.9,3.4-0.9
				c1.6,0,3.2,0.5,4.7,1.5c1.6,1,3.4,2.1,5.4,3.3c2,1.2,4.3,2.3,6.9,3.3c2.6,1,5.7,1.5,9.3,1.5c4.8,0,8.6-1.1,11.3-3.2
				c2.7-2.1,4-5.5,4-10.1c0-2.7-0.7-4.8-2.2-6.5c-1.5-1.7-3.4-3.1-5.8-4.2c-2.4-1.1-5.1-2.1-8.1-2.9c-3-0.8-6.2-1.8-9.4-2.8
				c-3.2-1-6.3-2.3-9.3-3.8c-3-1.5-5.7-3.5-8.1-5.9c-2.4-2.4-4.3-5.5-5.8-9.1c-1.5-3.6-2.2-8.1-2.2-13.5c0-4.3,0.9-8.5,2.6-12.6
				c1.7-4.1,4.3-7.7,7.6-10.9c3.4-3.2,7.5-5.8,12.3-7.7c4.9-1.9,10.4-2.9,16.7-2.9c3.5,0,6.9,0.3,10.3,0.8c3.3,0.5,6.5,1.4,9.4,2.4
				c3,1.1,5.8,2.4,8.4,3.9c2.6,1.5,4.9,3.2,7,5.1L1192.6,425.8z"/>
			<path class="st1" d="M1356.4,425.8c-0.8,1.3-1.6,2.2-2.5,2.8c-0.9,0.6-2,0.9-3.3,0.9c-1.2,0-2.5-0.4-3.9-1.1
				c-1.4-0.8-3-1.6-4.7-2.6c-1.8-0.9-3.8-1.8-6-2.5c-2.3-0.8-4.8-1.1-7.7-1.1c-5,0-8.7,1.1-11.1,3.2c-2.4,2.1-3.6,5-3.6,8.6
				c0,2.3,0.7,4.2,2.2,5.7c1.5,1.5,3.4,2.8,5.8,3.9c2.4,1.1,5.1,2.1,8.2,3c3.1,0.9,6.2,1.9,9.4,3.1c3.2,1.1,6.3,2.5,9.4,4
				c3,1.5,5.8,3.5,8.2,5.8c2.4,2.4,4.3,5.2,5.8,8.6c1.5,3.4,2.2,7.4,2.2,12.2c0,5.3-0.9,10.2-2.7,14.9c-1.8,4.6-4.5,8.6-8,12.1
				c-3.5,3.4-7.8,6.1-12.9,8.1c-5.1,2-10.9,3-17.4,2.9c-3.6,0-7.2-0.4-10.9-1.1c-3.7-0.7-7.3-1.8-10.7-3.1c-3.5-1.4-6.7-2.9-9.8-4.8
				c-3-1.8-5.7-3.9-7.9-6.1l7.9-12.4c0.6-0.9,1.4-1.7,2.4-2.3c1-0.6,2.2-0.9,3.4-0.9c1.6,0,3.2,0.5,4.8,1.5c1.6,1,3.4,2.1,5.4,3.3
				c2,1.2,4.3,2.3,6.9,3.3c2.6,1,5.7,1.5,9.3,1.5c4.8,0,8.6-1.1,11.3-3.2c2.7-2.1,4-5.5,4-10.1c0-2.7-0.7-4.8-2.2-6.5
				c-1.5-1.7-3.4-3.1-5.8-4.2c-2.4-1.1-5.1-2.1-8.1-2.9c-3-0.8-6.2-1.8-9.4-2.8c-3.2-1-6.3-2.3-9.4-3.8c-3-1.5-5.7-3.5-8.1-5.9
				c-2.4-2.4-4.3-5.5-5.8-9.1c-1.5-3.6-2.2-8.1-2.2-13.5c0-4.3,0.9-8.5,2.6-12.6c1.7-4.1,4.3-7.7,7.6-10.9c3.4-3.2,7.5-5.7,12.3-7.7
				c4.9-1.9,10.5-2.9,16.7-2.9c3.5,0,6.9,0.3,10.3,0.8c3.3,0.6,6.5,1.4,9.5,2.4c3,1.1,5.8,2.4,8.4,3.9c2.6,1.5,4.9,3.2,7,5.1
				L1356.4,425.8z"/>
		</g>
		<g>
			<path class="st0" d="M1495.8,289.4c20.5-0.2,36.9-16.9,36.7-37.4c-0.2-20.5-16.9-36.9-37.4-36.7c-20.5,0.2-36.9,16.9-36.7,37.4
				C1458.6,273.2,1475.3,289.6,1495.8,289.4"/>
			<path class="st0" d="M1534,170.9c20.5-0.2,36.9-16.9,36.7-37.4c-0.2-20.5-16.9-36.9-37.4-36.7c-20.5,0.2-36.9,16.9-36.7,37.4
				C1496.8,154.7,1513.5,171.1,1534,170.9"/>
			<path class="st0" d="M1632.8,95.9c22.9-0.2,41.3-19,41.1-41.8c-0.2-22.9-19-41.3-41.8-41.1c-22.9,0.2-41.3,18.9-41.1,41.8
				C1591.2,77.7,1609.9,96.1,1632.8,95.9"/>
			<path class="st0" d="M1767.8,85.1c23.5-0.2,42.4-19.4,42.2-42.9c-0.2-23.5-19.4-42.4-42.9-42.2c-23.5,0.2-42.4,19.4-42.2,43
				C1725,66.5,1744.3,85.4,1767.8,85.1"/>
			<path class="st0" d="M1883.1,142.8c24.7-0.2,44.6-20.4,44.3-45.2c-0.2-24.7-20.4-44.6-45.1-44.4c-24.7,0.2-44.6,20.4-44.4,45.2
				C1838.2,123.2,1858.4,143.1,1883.1,142.8"/>
			<path class="st0" d="M1947.3,256c27.2-0.2,49-22.5,48.7-49.6c-0.2-27.1-22.4-49-49.6-48.7c-27.2,0.3-49,22.5-48.8,49.6
				C1897.9,234.5,1920.1,256.3,1947.3,256"/>
			<path class="st0" d="M1936.7,383.1c29.6-0.3,53.4-24.5,53.1-54.1c-0.2-29.6-24.5-53.4-54.1-53.1c-29.6,0.3-53.3,24.5-53.1,54.1
				C1882.9,359.6,1907.1,383.4,1936.7,383.1"/>
			<path class="st0" d="M1852.4,478.5c30.8-0.3,55.6-25.5,55.3-56.3c-0.3-30.8-25.5-55.6-56.3-55.3c-30.8,0.3-55.6,25.5-55.3,56.3
				C1796.4,454.1,1821.6,478.8,1852.4,478.5"/>
			<path class="st0" d="M1725,518.6c33.2-0.3,60-27.5,59.7-60.7c-0.3-33.2-27.5-59.9-60.7-59.6c-33.2,0.3-60,27.5-59.7,60.7
				C1664.6,492.2,1691.8,518.9,1725,518.6"/>
			<path class="st0" d="M1811,197.4c17-0.2,30.7-14.1,30.5-31.1c-0.1-17-14.1-30.7-31.1-30.6c-17,0.2-30.7,14.1-30.5,31.1
				C1780,183.9,1793.9,197.6,1811,197.4"/>
			<path class="st0" d="M1746.4,164.1c16.8-0.1,30.3-13.9,30.1-30.7c-0.2-16.8-13.9-30.3-30.7-30.1c-16.8,0.1-30.3,13.9-30.1,30.7
				C1715.9,150.8,1729.6,164.3,1746.4,164.1"/>
			<path class="st0" d="M1616,338.2c13.3-0.1,23.9-11,23.8-24.2c-0.1-13.3-11-24-24.3-23.8c-13.3,0.1-23.9,11-23.8,24.2
				C1591.9,327.7,1602.7,338.3,1616,338.2"/>
			<path class="st0" d="M1673.5,167.3c15.8-0.2,28.4-13,28.3-28.8c-0.2-15.7-13-28.4-28.8-28.2c-15.8,0.1-28.4,13-28.3,28.8
				C1644.9,154.8,1657.7,167.5,1673.5,167.3"/>
			<path class="st0" d="M1615.4,211.3c14.9-0.1,27-12.4,26.8-27.3c-0.1-14.9-12.4-26.9-27.3-26.8c-14.9,0.1-26.9,12.3-26.8,27.3
				C1588.2,199.4,1600.4,211.4,1615.4,211.3"/>
			<path class="st0" d="M1595.8,277.2c14.3-0.1,25.8-11.8,25.7-26.2c-0.1-14.3-11.8-25.8-26.1-25.7c-14.3,0.1-25.8,11.8-25.7,26.1
				C1569.7,265.8,1581.4,277.3,1595.8,277.2"/>
			<path class="st0" d="M1676.1,375.7c12.4-0.1,22.5-10.3,22.3-22.8c-0.1-12.5-10.3-22.5-22.8-22.4c-12.5,0.1-22.5,10.3-22.4,22.8
				C1653.4,365.8,1663.6,375.8,1676.1,375.7"/>
			<path class="st0" d="M1746.8,380.9c11.7-0.1,21-9.6,20.9-21.3c-0.1-11.6-9.6-21-21.3-20.9c-11.6,0.1-21,9.6-20.9,21.3
				C1725.7,371.7,1735.2,381.1,1746.8,380.9"/>
			<path class="st0" d="M1812.2,347.9c11.4-0.1,20.5-9.4,20.4-20.8c-0.1-11.4-9.4-20.6-20.8-20.4c-11.4,0.1-20.6,9.4-20.5,20.8
				C1791.5,338.8,1800.8,348,1812.2,347.9"/>
		</g>
	</g>
</g>
</svg>
