<?xml version="1.0" encoding="utf-8"?>
<!-- Generator: Adobe Illustrator 26.3.1, SVG Export Plug-In . SVG Version: 6.00 Build 0)  -->
<svg version="1.1" xmlns="http://www.w3.org/2000/svg" xmlns:xlink="http://www.w3.org/1999/xlink" x="0px" y="0px"
	 viewBox="0 0 2588.1 671.9" style="enable-background:new 0 0 2588.1 671.9;" xml:space="preserve">
<style type="text/css">
	.st0{display:none;}
	.st1{display:inline;}
	.st2{display:inline;fill:#10B4E9;}
	.st3{display:inline;fill:#636466;}
	.st4{fill:#10B4E9;}
	.st5{fill:#FFFFFF;}
</style>
<g id="Rhombus" class="st0">
</g>
<g id="Safe_area" class="st0">
	<g>
		<polygon class="st1" points="611.6,48.3 2101.4,48.3 1888.8,827.8 403.7,827.8 		"/>
		<rect x="615.9" y="50.3" class="st1" width="1275.6" height="779.5"/>
	</g>
	<rect x="615.9" y="50.3" width="1275.6" height="779.5"/>
</g>
<g id="Artwork">
	<g class="st0">
		<path class="st2" d="M745.4,548.7c0.3,0,0.7,0.1,0.9,0.4l2.5,2.7c-1.9,2.2-4.2,3.9-7,5.2c-2.7,1.2-6,1.9-9.9,1.9
			c-3.4,0-6.4-0.6-9.2-1.7c-2.7-1.2-5.1-2.8-7-4.9c-1.9-2.1-3.4-4.6-4.5-7.6c-1.1-2.9-1.6-6.2-1.6-9.7c0-3.5,0.6-6.8,1.7-9.7
			c1.1-2.9,2.7-5.5,4.8-7.6c2.1-2.1,4.5-3.7,7.4-4.9c2.9-1.2,6.1-1.7,9.5-1.7c3.4,0,6.4,0.5,8.9,1.6c2.5,1.1,4.7,2.5,6.6,4.3
			l-2.1,2.9c-0.2,0.2-0.3,0.4-0.5,0.5c-0.2,0.1-0.5,0.2-0.8,0.2c-0.3,0-0.6-0.1-0.9-0.3c-0.3-0.2-0.7-0.5-1.1-0.8
			c-0.4-0.3-0.9-0.6-1.5-1c-0.6-0.3-1.3-0.7-2.1-1c-0.8-0.3-1.7-0.6-2.8-0.8c-1.1-0.2-2.3-0.3-3.7-0.3c-2.5,0-4.8,0.4-6.9,1.3
			c-2.1,0.9-3.9,2.1-5.4,3.7c-1.5,1.6-2.7,3.5-3.5,5.8c-0.8,2.3-1.3,4.8-1.3,7.7c0,2.9,0.4,5.5,1.3,7.8c0.8,2.3,2,4.2,3.4,5.8
			c1.4,1.6,3.2,2.8,5.1,3.6c2,0.8,4.1,1.2,6.4,1.2c1.4,0,2.6-0.1,3.8-0.2c1.1-0.2,2.1-0.4,3.1-0.8c0.9-0.3,1.8-0.8,2.6-1.3
			c0.8-0.5,1.6-1.2,2.5-1.9C744.7,548.9,745.1,548.7,745.4,548.7"/>
		<path class="st2" d="M833.3,535c0,3.5-0.6,6.7-1.7,9.6c-1.1,2.9-2.7,5.4-4.7,7.6c-2,2.1-4.5,3.8-7.3,4.9c-2.8,1.2-6,1.7-9.4,1.7
			c-3.4,0-6.6-0.6-9.4-1.8c-2.8-1.2-5.3-2.8-7.3-4.9c-2-2.1-3.6-4.6-4.7-7.6c-1.1-2.9-1.7-6.1-1.7-9.6c0-3.5,0.6-6.7,1.7-9.6
			c1.1-2.9,2.7-5.4,4.7-7.6c2-2.1,4.5-3.8,7.3-4.9c2.8-1.2,6-1.8,9.4-1.8c3.4,0,6.6,0.6,9.4,1.8c2.8,1.2,5.3,2.8,7.3,4.9
			c2,2.1,3.6,4.7,4.7,7.6C832.7,528.3,833.3,531.5,833.3,535 M826.7,535c0-2.9-0.4-5.5-1.2-7.7c-0.8-2.3-1.9-4.2-3.3-5.8
			c-1.4-1.6-3.2-2.8-5.2-3.6c-2-0.8-4.3-1.3-6.9-1.3c-2.5,0-4.8,0.4-6.8,1.3c-2,0.8-3.8,2.1-5.2,3.6c-1.4,1.6-2.6,3.5-3.3,5.8
			c-0.8,2.3-1.2,4.9-1.2,7.7c0,2.9,0.4,5.4,1.2,7.7c0.8,2.3,1.9,4.2,3.3,5.8c1.4,1.6,3.2,2.8,5.2,3.6c2,0.8,4.3,1.3,6.8,1.3
			c2.5,0,4.8-0.4,6.9-1.3c2-0.8,3.8-2,5.2-3.6c1.4-1.6,2.5-3.5,3.3-5.8C826.4,540.5,826.7,537.9,826.7,535"/>
		<path class="st2" d="M898.3,543.1c0.2,0.6,0.5,1.2,0.7,1.7c0.2-0.6,0.4-1.2,0.7-1.7c0.2-0.6,0.5-1.1,0.8-1.7l15.8-28.8
			c0.3-0.5,0.6-0.8,0.9-0.9c0.3-0.1,0.7-0.2,1.3-0.2l4.7,0l0,46.8l-5.5,0l0-34.4c0-0.5,0-0.9,0-1.5c0-0.5,0.1-1.1,0.1-1.6l-16,29.2
			c-0.5,1-1.3,1.5-2.3,1.5h-0.9c-1,0-1.7-0.5-2.3-1.5l-16.4-29.3c0.1,0.6,0.1,1.1,0.1,1.7c0,0.5,0,1,0,1.5l0,34.4h-5.5l0-46.8h4.7
			c0.6,0,1,0.1,1.3,0.2c0.3,0.1,0.6,0.4,0.9,0.9l16.2,28.8C897.9,542,898.1,542.6,898.3,543.1"/>
		<path class="st2" d="M974.2,540.9l0,17.5h-6.3l0-46.8h13.8c3,0,5.5,0.3,7.7,1c2.2,0.7,4,1.7,5.4,2.9c1.4,1.3,2.5,2.8,3.2,4.6
			c0.7,1.8,1.1,3.8,1.1,6c0,2.2-0.4,4.2-1.1,6c-0.8,1.8-1.9,3.4-3.4,4.7c-1.5,1.3-3.3,2.3-5.5,3.1c-2.2,0.7-4.7,1.1-7.5,1.1
			L974.2,540.9z M974.2,535.9h7.5c1.8,0,3.4-0.2,4.8-0.7c1.4-0.5,2.5-1.1,3.5-2c0.9-0.9,1.6-1.9,2.1-3.1c0.5-1.2,0.7-2.5,0.7-4
			c0-3-0.9-5.3-2.8-7c-1.8-1.7-4.6-2.5-8.3-2.5l-7.5,0L974.2,535.9z"/>
		<polygon class="st2" points="1046.1,553.1 1066.3,553.1 1066.3,558.4 1039.8,558.4 1039.8,511.7 1046.1,511.7 		"/>
		<polygon class="st2" points="1134.8,511.7 1134.8,516.8 1112.3,516.8 1112.3,532.4 1130.5,532.4 1130.5,537.3 1112.3,537.3 
			1112.3,553.3 1134.8,553.3 1134.8,558.4 1106,558.4 1106,511.7 		"/>
		<polygon class="st2" points="1208.4,511.7 1208.4,517 1193.3,517 1193.3,558.5 1186.9,558.5 1187,517 1171.8,517 1171.8,511.7 		
			"/>
		<polygon class="st2" points="1276.5,511.7 1276.5,516.9 1254.1,516.8 1254.1,532.4 1272.2,532.4 1272.2,537.3 1254.1,537.3 
			1254.1,553.3 1276.5,553.3 1276.5,558.5 1247.7,558.5 1247.7,511.7 		"/>
		<path class="st3" d="M1356,550.5c1.5,0,2.9-0.1,4-0.4c1.2-0.3,2.3-0.6,3.3-1v-7.2h-4.7c-0.7,0-1.2-0.2-1.6-0.6
			c-0.4-0.4-0.6-0.8-0.6-1.4v-6.1h16.9l0,20.1c-1.2,0.9-2.5,1.7-3.8,2.3c-1.3,0.6-2.7,1.2-4.2,1.6c-1.5,0.4-3.1,0.7-4.8,0.9
			c-1.7,0.2-3.5,0.3-5.4,0.3c-3.5,0-6.7-0.6-9.7-1.8c-3-1.2-5.5-2.9-7.7-5.1c-2.2-2.2-3.9-4.7-5.1-7.7c-1.2-3-1.8-6.2-1.8-9.7
			c0-3.5,0.6-6.8,1.8-9.8c1.2-3,2.9-5.5,5-7.7c2.2-2.2,4.8-3.8,7.9-5c3.1-1.2,6.6-1.8,10.4-1.8c2,0,3.8,0.2,5.6,0.5
			c1.7,0.3,3.3,0.8,4.8,1.3c1.5,0.6,2.8,1.2,4,2c1.2,0.8,2.3,1.6,3.3,2.5l-3.2,4.9c-0.3,0.5-0.7,0.8-1.1,1.1
			c-0.4,0.3-0.9,0.4-1.4,0.4c-0.6,0-1.3-0.2-2-0.7c-0.9-0.5-1.7-1-2.5-1.4c-0.8-0.4-1.6-0.7-2.4-0.9c-0.8-0.2-1.7-0.4-2.5-0.5
			c-0.9-0.1-1.9-0.2-3-0.2c-2.1,0-3.9,0.4-5.6,1.1c-1.6,0.7-3.1,1.8-4.2,3.1c-1.2,1.3-2.1,2.9-2.7,4.8c-0.6,1.9-0.9,3.9-0.9,6.2
			c0,2.5,0.3,4.8,1,6.7c0.7,2,1.7,3.6,2.9,5c1.2,1.4,2.7,2.4,4.4,3.1C1352.2,550.2,1354,550.5,1356,550.5"/>
		<polygon class="st3" points="1423.8,549.7 1441.4,549.7 1441.4,558.5 1412.7,558.5 1412.8,510.9 1423.8,510.9 		"/>
		<path class="st3" d="M1523.5,558.5l-8.6,0c-1,0-1.7-0.2-2.4-0.7c-0.6-0.4-1-1-1.3-1.7l-2.8-8.3l-18.1,0l-2.8,8.3
			c-0.2,0.6-0.6,1.2-1.3,1.6c-0.6,0.5-1.4,0.7-2.3,0.7h-8.6l18.4-47.6h11.3L1523.5,558.5z M1493,540.3l13,0l-4.4-13
			c-0.3-0.8-0.6-1.8-1-2.9c-0.4-1.1-0.8-2.3-1.1-3.6c-0.3,1.3-0.7,2.6-1.1,3.7c-0.4,1.1-0.7,2.1-1,2.9L1493,540.3z"/>
		<path class="st3" d="M1586.5,520.6c-0.3,0.5-0.7,0.9-1,1.2c-0.4,0.3-0.8,0.4-1.4,0.4c-0.5,0-1-0.2-1.6-0.5c-0.6-0.3-1.2-0.7-2-1.1
			c-0.7-0.4-1.6-0.7-2.5-1.1c-0.9-0.3-2-0.5-3.2-0.5c-2.1,0-3.6,0.4-4.6,1.3c-1,0.9-1.5,2.1-1.5,3.6c0,1,0.3,1.8,0.9,2.4
			c0.6,0.6,1.4,1.2,2.4,1.6c1,0.5,2.1,0.9,3.4,1.3c1.3,0.4,2.6,0.8,3.9,1.3c1.3,0.5,2.6,1,3.9,1.7c1.3,0.6,2.4,1.4,3.4,2.4
			c1,1,1.8,2.2,2.4,3.6c0.6,1.4,0.9,3.1,0.9,5.1c0,2.2-0.4,4.3-1.1,6.2c-0.8,1.9-1.9,3.6-3.3,5c-1.4,1.4-3.2,2.5-5.4,3.4
			c-2.1,0.8-4.5,1.2-7.2,1.2c-1.5,0-3-0.2-4.5-0.5c-1.5-0.3-3-0.7-4.5-1.3c-1.4-0.6-2.8-1.2-4-2c-1.3-0.8-2.4-1.6-3.3-2.5l3.3-5.2
			c0.2-0.4,0.6-0.7,1-0.9c0.4-0.2,0.9-0.4,1.4-0.4c0.7,0,1.3,0.2,2,0.6c0.7,0.4,1.4,0.9,2.3,1.4c0.8,0.5,1.8,1,2.9,1.4
			c1.1,0.4,2.4,0.6,3.8,0.6c2,0,3.6-0.4,4.7-1.3c1.1-0.9,1.7-2.3,1.7-4.2c0-1.1-0.3-2-0.9-2.7c-0.6-0.7-1.4-1.3-2.4-1.7
			c-1-0.5-2.1-0.9-3.4-1.2c-1.3-0.4-2.6-0.7-3.9-1.2c-1.3-0.4-2.6-0.9-3.9-1.6c-1.3-0.6-2.4-1.4-3.4-2.4c-1-1-1.8-2.3-2.4-3.8
			c-0.6-1.5-0.9-3.4-0.9-5.6c0-1.8,0.4-3.5,1.1-5.2c0.7-1.7,1.8-3.2,3.2-4.5c1.4-1.3,3.1-2.4,5.1-3.2c2-0.8,4.3-1.2,7-1.2
			c1.5,0,2.9,0.1,4.3,0.3c1.4,0.2,2.7,0.6,3.9,1c1.2,0.4,2.4,1,3.5,1.6c1.1,0.6,2,1.3,2.9,2.1L1586.5,520.6z"/>
		<path class="st3" d="M1654.6,520.6c-0.3,0.5-0.7,0.9-1,1.2c-0.4,0.3-0.8,0.4-1.4,0.4c-0.5,0-1-0.2-1.6-0.5c-0.6-0.3-1.2-0.7-2-1.1
			c-0.7-0.4-1.6-0.7-2.5-1.1c-0.9-0.3-2-0.5-3.2-0.5c-2.1,0-3.6,0.4-4.6,1.3c-1,0.9-1.5,2.1-1.5,3.6c0,1,0.3,1.8,0.9,2.4
			c0.6,0.6,1.4,1.2,2.4,1.6c1,0.5,2.1,0.9,3.4,1.3c1.3,0.4,2.6,0.8,3.9,1.3c1.3,0.5,2.6,1,3.9,1.7c1.3,0.6,2.4,1.4,3.4,2.4
			c1,1,1.8,2.2,2.4,3.6c0.6,1.4,0.9,3.1,0.9,5.1c0,2.2-0.4,4.3-1.1,6.2c-0.8,1.9-1.9,3.6-3.3,5c-1.4,1.4-3.2,2.5-5.4,3.4
			c-2.1,0.8-4.5,1.2-7.2,1.2c-1.5,0-3-0.2-4.5-0.5c-1.5-0.3-3-0.7-4.5-1.3c-1.4-0.6-2.8-1.2-4.1-2c-1.3-0.8-2.4-1.6-3.3-2.5l3.3-5.2
			c0.2-0.4,0.6-0.7,1-0.9c0.4-0.2,0.9-0.4,1.4-0.4c0.7,0,1.3,0.2,2,0.6c0.7,0.4,1.4,0.9,2.3,1.4c0.8,0.5,1.8,1,2.9,1.4
			c1.1,0.4,2.4,0.6,3.9,0.6c2,0,3.6-0.4,4.7-1.3c1.1-0.9,1.7-2.3,1.7-4.2c0-1.1-0.3-2-0.9-2.7c-0.6-0.7-1.4-1.3-2.4-1.7
			c-1-0.5-2.1-0.9-3.4-1.2c-1.3-0.3-2.6-0.7-3.9-1.2c-1.3-0.4-2.6-0.9-3.9-1.6c-1.3-0.6-2.4-1.4-3.4-2.4c-1-1-1.8-2.3-2.4-3.8
			c-0.6-1.5-0.9-3.4-0.9-5.6c0-1.8,0.4-3.5,1.1-5.2c0.7-1.7,1.8-3.2,3.2-4.5c1.4-1.3,3.1-2.4,5.1-3.2c2-0.8,4.3-1.2,7-1.2
			c1.5,0,2.9,0.1,4.3,0.3c1.4,0.2,2.7,0.6,3.9,1c1.2,0.4,2.4,1,3.5,1.6c1.1,0.6,2,1.3,2.9,2.1L1654.6,520.6z"/>
		<g class="st1">
			<path class="st4" d="M1648.5,477c7.3-0.1,13.1-6,13-13.3c-0.1-7.3-6-13.1-13.3-13c-7.3,0.1-13.1,6-13,13.3
				C1635.3,471.3,1641.3,477.1,1648.5,477"/>
			<path class="st4" d="M1662.1,435c7.3-0.1,13.1-6,13-13.3c-0.1-7.3-6-13.1-13.3-13c-7.3,0.1-13.1,6-13,13.3
				C1648.9,429.3,1654.8,435.1,1662.1,435"/>
			<path class="st4" d="M1697.1,408.4c8.1-0.1,14.6-6.7,14.6-14.8c-0.1-8.1-6.7-14.6-14.8-14.6c-8.1,0.1-14.6,6.7-14.6,14.8
				C1682.3,402,1689,408.5,1697.1,408.4"/>
			<path class="st4" d="M1744.9,404.6c8.3-0.1,15-6.9,15-15.2c-0.1-8.3-6.9-15-15.2-15c-8.3,0.1-15,6.9-15,15.2
				C1729.8,398,1736.6,404.7,1744.9,404.6"/>
			<path class="st4" d="M1785.9,425.1c8.8-0.1,15.8-7.3,15.7-16c-0.1-8.8-7.2-15.8-16-15.7c-8.8,0.1-15.8,7.2-15.7,16
				C1769.9,418.1,1777.1,425.1,1785.9,425.1"/>
			<path class="st4" d="M1808.6,465.2c9.6-0.1,17.4-8,17.3-17.6c-0.1-9.6-8-17.4-17.6-17.3c-9.6,0.1-17.4,8-17.3,17.6
				C1791.1,457.6,1799,465.3,1808.6,465.2"/>
			<path class="st4" d="M1804.8,510.3c10.5-0.1,18.9-8.7,18.8-19.2c-0.1-10.5-8.7-18.9-19.2-18.8c-10.5,0.1-18.9,8.7-18.8,19.2
				C1785.8,501.9,1794.3,510.4,1804.8,510.3"/>
			<path class="st4" d="M1775,544.1c10.9-0.1,19.7-9,19.6-20c-0.1-10.9-9-19.7-20-19.6c-10.9,0.1-19.7,9-19.6,20
				C1755.1,535.4,1764,544.2,1775,544.1"/>
			<path class="st4" d="M1729.8,558.3c11.8-0.1,21.3-9.7,21.2-21.5c-0.1-11.8-9.8-21.3-21.5-21.2c-11.8,0.1-21.3,9.7-21.2,21.5
				C1708.4,548.9,1718,558.4,1729.8,558.3"/>
			<path class="st4" d="M1760.3,444.4c6-0.1,10.9-5,10.8-11c-0.1-6-5-10.9-11-10.8c-6,0.1-10.9,5-10.8,11
				C1749.3,439.6,1754.2,444.5,1760.3,444.4"/>
			<path class="st4" d="M1737.4,432.6c6,0,10.7-4.9,10.7-10.9c-0.1-6-4.9-10.7-10.9-10.7c-6,0.1-10.7,4.9-10.7,10.9
				C1726.5,427.9,1731.4,432.7,1737.4,432.6"/>
			<path class="st4" d="M1691.1,494.3c4.7,0,8.5-3.9,8.4-8.6c0-4.7-3.9-8.5-8.6-8.5c-4.7,0-8.5,3.9-8.4,8.6
				C1682.6,490.6,1686.4,494.4,1691.1,494.3"/>
			<path class="st4" d="M1711.5,433.7c5.6-0.1,10.1-4.6,10-10.2c-0.1-5.6-4.6-10.1-10.2-10c-5.6,0.1-10.1,4.6-10,10.2
				C1701.4,429.3,1705.9,433.8,1711.5,433.7"/>
			<path class="st4" d="M1690.9,449.3c5.3,0,9.6-4.4,9.5-9.7c0-5.3-4.4-9.6-9.7-9.5c-5.3,0-9.6,4.4-9.5,9.7
				C1681.3,445.1,1685.6,449.4,1690.9,449.3"/>
			<path class="st4" d="M1684,472.7c5.1,0,9.2-4.2,9.1-9.3c0-5.1-4.2-9.2-9.3-9.1c-5.1,0-9.2,4.2-9.1,9.3
				C1674.7,468.7,1678.9,472.7,1684,472.7"/>
			<path class="st4" d="M1712.4,507.6c4.4,0,8-3.7,7.9-8.1c0-4.4-3.7-8-8.1-7.9c-4.4,0-8,3.6-7.9,8.1
				C1704.4,504.1,1708,507.7,1712.4,507.6"/>
			<path class="st4" d="M1737.5,509.5c4.1,0,7.5-3.4,7.4-7.6c0-4.1-3.4-7.4-7.5-7.4c-4.1,0-7.4,3.4-7.4,7.5
				C1730,506.2,1733.4,509.5,1737.5,509.5"/>
			<path class="st4" d="M1760.7,497.8c4,0,7.3-3.3,7.2-7.4c0-4-3.3-7.3-7.4-7.2c-4,0-7.3,3.3-7.3,7.4
				C1753.4,494.6,1756.7,497.8,1760.7,497.8"/>
		</g>
	</g>
	<g>
		<g>
			<g>
				<path class="st4" d="M111.5,394.2c1.1,0,2.1,0.4,3,1.3l7.7,8.5c-6,6.9-13.2,12.3-21.8,16.2c-8.5,3.9-18.8,5.8-30.8,5.8
					c-10.5,0-20.1-1.8-28.6-5.5c-8.6-3.6-15.9-8.7-21.9-15.3c-6-6.6-10.7-14.4-14.1-23.6c-3.3-9.2-5-19.3-5-30.3
					c0-11,1.8-21.1,5.4-30.3c3.6-9.2,8.6-17.1,15-23.6c6.5-6.6,14.2-11.7,23.2-15.3c9-3.6,18.9-5.4,29.8-5.4c10.7,0,20,1.7,27.8,5
					c7.8,3.3,14.7,7.8,20.7,13.5l-6.4,9.1c-0.5,0.7-1,1.2-1.6,1.7c-0.6,0.4-1.5,0.7-2.7,0.7c-0.9,0-1.8-0.3-2.8-1
					c-1-0.6-2.1-1.4-3.5-2.4c-1.4-0.9-3-2-4.8-3.1c-1.8-1.1-4-2.1-6.5-3c-2.5-1-5.4-1.7-8.8-2.4c-3.3-0.6-7.2-1-11.5-1
					c-7.8,0-15,1.3-21.5,4c-6.5,2.7-12.1,6.5-16.8,11.5c-4.7,4.9-8.4,11-11,18.1c-2.6,7.1-3.9,15.1-3.9,23.9
					c0,9.1,1.3,17.2,3.9,24.4c2.6,7.1,6.2,13.2,10.7,18.1c4.5,4.9,9.9,8.7,16.1,11.3c6.2,2.6,12.8,3.9,20,3.9
					c4.3,0,8.2-0.3,11.7-0.8c3.5-0.5,6.7-1.3,9.6-2.4c3-1.1,5.7-2.5,8.3-4.1c2.5-1.7,5.1-3.6,7.7-6
					C109.3,394.7,110.4,394.2,111.5,394.2"/>
				<path class="st4" d="M385.7,351.4c0,10.9-1.8,21-5.2,30.1c-3.5,9.1-8.4,17-14.7,23.6c-6.3,6.6-13.9,11.7-22.8,15.3
					c-8.9,3.6-18.7,5.4-29.4,5.4c-10.7,0-20.5-1.8-29.3-5.5c-8.8-3.6-16.4-8.7-22.7-15.3c-6.3-6.6-11.2-14.5-14.7-23.6
					c-3.5-9.1-5.2-19.2-5.2-30.1c0-10.9,1.7-21,5.2-30.1c3.5-9.1,8.3-17,14.7-23.6c6.3-6.6,13.9-11.8,22.7-15.4
					c8.8-3.7,18.6-5.5,29.3-5.5c10.7,0,20.5,1.8,29.4,5.5c8.9,3.7,16.4,8.8,22.8,15.4c6.3,6.6,11.2,14.5,14.7,23.6
					C383.9,330.5,385.7,340.5,385.7,351.4 M365.4,351.4c0-9-1.2-17-3.7-24.2c-2.5-7.1-5.9-13.2-10.4-18.1
					c-4.5-4.9-9.9-8.7-16.3-11.4c-6.4-2.6-13.5-4-21.4-4c-7.8,0-14.9,1.3-21.3,4c-6.4,2.6-11.8,6.4-16.3,11.4
					c-4.5,4.9-8,10.9-10.4,18.1c-2.4,7.1-3.7,15.2-3.7,24.2c0,9,1.2,17,3.7,24.1c2.4,7.1,5.9,13.1,10.4,18c4.5,4.9,10,8.7,16.4,11.3
					c6.4,2.6,13.5,3.9,21.3,3.9c7.9,0,15-1.3,21.4-3.9c6.4-2.6,11.8-6.4,16.3-11.3c4.5-4.9,7.9-10.9,10.4-18
					C364.1,368.4,365.4,360.4,365.4,351.4"/>
				<path class="st4" d="M588.9,376.8c0.7,1.8,1.4,3.6,2.1,5.5c0.7-1.9,1.4-3.7,2.1-5.5c0.7-1.7,1.6-3.5,2.5-5.3l49.4-89.7
					c0.9-1.6,1.8-2.5,2.8-2.9c1-0.3,2.3-0.5,4.1-0.5l14.6,0l0,146l-17.3,0l0-107.3c0-1.4,0-2.9,0.1-4.6c0.1-1.6,0.2-3.3,0.3-5
					l-50,91.3c-1.7,3.1-4.1,4.6-7.1,4.6h-2.8c-3.1,0-5.4-1.5-7.1-4.6l-51.1-91.6c0.2,1.8,0.4,3.5,0.5,5.2c0.1,1.7,0.2,3.3,0.2,4.7
					l0,107.3h-17.3l0-146h14.6c1.8,0,3.1,0.2,4.1,0.5c1,0.3,1.9,1.3,2.8,2.9l50.4,89.9C587.3,373.3,588.1,375,588.9,376.8"/>
				<path class="st4" d="M825.6,369.8l0,54.6h-19.7l0-146h43.1c9.2,0,17.3,1.1,24.1,3.2c6.8,2.1,12.5,5.2,17,9.1
					c4.5,4,7.8,8.7,10,14.3c2.2,5.6,3.3,11.8,3.3,18.6c0,6.8-1.2,13-3.6,18.6c-2.4,5.7-5.9,10.5-10.5,14.6
					c-4.6,4.1-10.3,7.2-17.1,9.5c-6.8,2.3-14.6,3.4-23.3,3.4L825.6,369.8z M825.6,354.2H849c5.6,0,10.6-0.7,14.9-2.2
					c4.3-1.5,7.9-3.6,10.8-6.3c2.9-2.7,5.1-5.9,6.6-9.6c1.5-3.7,2.2-7.9,2.2-12.3c0-9.3-2.9-16.6-8.6-21.8c-5.8-5.2-14.4-7.8-26-7.8
					l-23.4,0L825.6,354.2z"/>
				<polygon class="st4" points="1050.1,407.9 1113.2,407.9 1113.2,424.5 1030.3,424.5 1030.3,278.5 1050.1,278.5 				"/>
				<polygon class="st4" points="1326.9,278.5 1326.9,294.6 1256.8,294.6 1256.8,343.1 1313.6,343.1 1313.6,358.6 1256.8,358.6 
					1256.8,408.4 1326.9,408.5 1326.9,424.5 1236.9,424.5 1237,278.5 				"/>
				<polygon class="st4" points="1556.7,278.6 1556.7,295.2 1509.5,295.2 1509.5,424.6 1489.7,424.6 1489.7,295.2 1442.4,295.2 
					1442.4,278.6 				"/>
				<polygon class="st4" points="1769.3,278.6 1769.3,294.7 1699.2,294.7 1699.2,343.2 1756,343.2 1756,358.7 1699.2,358.7 
					1699.2,408.5 1769.3,408.5 1769.3,424.6 1679.3,424.6 1679.4,278.6 				"/>
			</g>
			<g>
				<path class="st5" d="M826.8,645.4c4.8,0,9-0.4,12.6-1.2c3.7-0.8,7.1-1.9,10.4-3.3v-22.5h-14.7c-2.2,0-3.9-0.6-5.1-1.7
					c-1.2-1.1-1.8-2.6-1.8-4.4v-18.9h52.8l0,62.7c-3.8,2.8-7.8,5.2-11.9,7.2c-4.1,2-8.5,3.6-13.1,4.9c-4.7,1.3-9.6,2.3-14.9,2.9
					c-5.3,0.6-10.9,0.9-17,0.9c-10.8,0-20.9-1.9-30.1-5.8c-9.2-3.9-17.3-9.1-24-15.9c-6.8-6.8-12.1-14.8-15.9-24
					c-3.8-9.3-5.8-19.3-5.7-30.2c0-11.1,1.8-21.2,5.5-30.5c3.7-9.3,8.9-17.3,15.7-24c6.8-6.7,15.1-11.9,24.8-15.7
					c9.7-3.7,20.5-5.6,32.4-5.6c6.2,0,12,0.5,17.4,1.6c5.4,1,10.5,2.4,15,4.2c4.6,1.8,8.8,3.9,12.6,6.3c3.8,2.4,7.2,5.1,10.2,7.9
					l-10,15.2c-0.9,1.4-2.1,2.6-3.4,3.4c-1.3,0.8-2.8,1.2-4.3,1.2c-2,0-4.1-0.7-6.3-2c-2.7-1.6-5.3-3-7.7-4.2
					c-2.4-1.2-4.9-2.2-7.4-2.9c-2.5-0.7-5.2-1.3-7.9-1.6c-2.8-0.3-5.9-0.5-9.4-0.5c-6.5,0-12.3,1.1-17.4,3.4
					c-5.1,2.3-9.6,5.5-13.2,9.6c-3.6,4.1-6.4,9.1-8.4,14.9c-2,5.8-2.9,12.3-2.9,19.4c0,7.9,1.1,14.9,3.2,21c2.2,6.1,5.2,11.3,9,15.5
					c3.9,4.2,8.4,7.4,13.7,9.6C814.8,644.3,820.6,645.4,826.8,645.4"/>
				<polygon class="st5" points="1038.4,642.8 1093.4,642.8 1093.4,670.3 1003.9,670.3 1003.9,521.9 1038.4,521.9 				"/>
				<path class="st5" d="M1349.7,670.4H1323c-3,0-5.4-0.7-7.4-2.1c-1.9-1.4-3.3-3.2-4-5.4l-8.8-25.9l-56.5,0l-8.8,25.9
					c-0.7,1.9-2,3.6-4,5.2c-2,1.5-4.4,2.3-7.2,2.3h-26.9l57.5-148.4h35.2L1349.7,670.4z M1254.4,613.6l40.5,0l-13.6-40.7
					c-0.9-2.6-1.9-5.6-3.1-9.1c-1.2-3.5-2.4-7.3-3.5-11.3c-1.1,4.1-2.2,8-3.4,11.5c-1.2,3.5-2.2,6.6-3.3,9.2L1254.4,613.6z"/>
				<path class="st5" d="M1546.4,552.1c-1,1.6-2.1,2.8-3.2,3.7c-1.1,0.8-2.6,1.2-4.3,1.2c-1.6,0-3.2-0.5-5-1.5
					c-1.8-1-3.9-2.1-6.1-3.3c-2.3-1.2-4.9-2.3-7.8-3.3c-2.9-1-6.2-1.5-10-1.5c-6.4,0-11.3,1.4-14.4,4.1c-3.1,2.7-4.7,6.5-4.7,11.1
					c0,3,1,5.5,2.8,7.4c1.9,2,4.4,3.7,7.5,5.1c3.1,1.4,6.6,2.7,10.6,3.9c4,1.2,8,2.5,12.2,4c4.2,1.5,8.2,3.2,12.2,5.2
					c4,2,7.5,4.5,10.6,7.5c3.1,3.1,5.6,6.8,7.5,11.2c1.9,4.4,2.8,9.7,2.8,15.8c0,6.9-1.2,13.3-3.6,19.3c-2.4,6-5.8,11.2-10.4,15.6
					c-4.5,4.4-10.1,7.9-16.7,10.5c-6.6,2.5-14.1,3.8-22.5,3.8c-4.6,0-9.3-0.5-14.1-1.4c-4.8-1-9.4-2.3-13.9-4
					c-4.5-1.7-8.7-3.8-12.6-6.2c-3.9-2.4-7.4-5-10.3-7.9l10.2-16.1c0.8-1.2,1.8-2.2,3.2-2.9c1.4-0.8,2.8-1.1,4.4-1.1
					c2,0,4.1,0.6,6.2,1.9c2.1,1.3,4.4,2.7,7,4.3c2.6,1.6,5.6,3,9,4.3c3.4,1.3,7.4,1.9,12,1.9c6.3,0,11.1-1.4,14.6-4.1
					c3.4-2.8,5.2-7.1,5.2-13.1c0-3.5-1-6.3-2.9-8.5c-1.9-2.2-4.4-4-7.5-5.4c-3.1-1.4-6.6-2.7-10.5-3.8c-3.9-1.1-8-2.3-12.1-3.6
					c-4.1-1.3-8.2-3-12.1-4.9c-3.9-1.9-7.5-4.5-10.5-7.6c-3.1-3.2-5.6-7.1-7.5-11.8c-1.9-4.7-2.8-10.5-2.8-17.5
					c0-5.6,1.1-11,3.3-16.3c2.2-5.3,5.6-10,9.9-14.1c4.3-4.1,9.7-7.5,16-9.9c6.3-2.5,13.5-3.7,21.7-3.7c4.5,0,9,0.4,13.3,1.1
					c4.3,0.7,8.4,1.8,12.3,3.2c3.9,1.4,7.5,3.1,10.8,5c3.4,1.9,6.4,4.1,9,6.6L1546.4,552.1z"/>
				<path class="st5" d="M1758.8,552.2c-1,1.6-2.1,2.9-3.2,3.7c-1.1,0.8-2.6,1.2-4.3,1.2c-1.6,0-3.2-0.5-5-1.5
					c-1.8-1-3.8-2.1-6.1-3.3c-2.3-1.2-4.9-2.3-7.8-3.3c-2.9-1-6.2-1.5-10-1.5c-6.5,0-11.3,1.4-14.4,4.1c-3.1,2.7-4.7,6.5-4.7,11.1
					c0,3,1,5.5,2.8,7.5c1.9,2,4.4,3.7,7.5,5.1c3.1,1.4,6.6,2.7,10.6,3.9c4,1.2,8,2.5,12.2,4c4.1,1.5,8.2,3.2,12.2,5.2
					c4,2,7.5,4.5,10.6,7.5c3.1,3.1,5.6,6.8,7.5,11.2c1.9,4.4,2.8,9.7,2.8,15.9c0,6.9-1.2,13.3-3.6,19.3c-2.4,6-5.8,11.2-10.4,15.6
					c-4.5,4.4-10.1,7.9-16.7,10.5c-6.6,2.5-14.1,3.8-22.5,3.8c-4.6,0-9.3-0.5-14.1-1.4c-4.8-1-9.4-2.3-13.9-4
					c-4.5-1.8-8.7-3.8-12.7-6.2c-3.9-2.4-7.3-5-10.3-8l10.2-16.1c0.8-1.2,1.8-2.2,3.2-3c1.3-0.8,2.8-1.1,4.4-1.1
					c2,0,4.1,0.7,6.2,1.9c2.1,1.3,4.4,2.7,7,4.3c2.6,1.6,5.6,3,9,4.3c3.4,1.3,7.4,1.9,12,1.9c6.2,0,11.1-1.4,14.6-4.1
					c3.4-2.8,5.2-7.1,5.2-13.1c0-3.5-1-6.3-2.8-8.5c-1.9-2.2-4.4-4-7.5-5.4c-3.1-1.4-6.6-2.7-10.6-3.8c-3.9-1.1-8-2.3-12.1-3.6
					c-4.1-1.3-8.2-3-12.1-4.9c-3.9-1.9-7.4-4.5-10.5-7.6c-3.1-3.2-5.6-7.1-7.5-11.8c-1.9-4.7-2.8-10.5-2.8-17.5
					c0-5.6,1.1-11,3.3-16.3c2.2-5.3,5.6-10,9.9-14.2c4.4-4.1,9.7-7.4,16-9.9c6.3-2.5,13.6-3.7,21.7-3.7c4.5,0,9,0.3,13.3,1.1
					c4.3,0.7,8.4,1.8,12.3,3.2c3.9,1.4,7.5,3.1,10.8,5c3.4,1.9,6.4,4.1,9,6.6L1758.8,552.2z"/>
			</g>
			<g>
				<path class="st4" d="M1939.5,375.3c26.5-0.3,47.9-22,47.6-48.5c-0.2-26.6-21.9-47.9-48.5-47.6c-26.6,0.2-47.9,21.9-47.6,48.5
					C1891.3,354.2,1913,375.5,1939.5,375.3"/>
				<path class="st4" d="M1989.1,221.6c26.5-0.2,47.9-21.9,47.6-48.5c-0.2-26.6-22-47.9-48.5-47.6c-26.5,0.2-47.9,21.9-47.6,48.5
					C1940.8,200.5,1962.5,221.9,1989.1,221.6"/>
				<path class="st4" d="M2117.2,124.3c29.7-0.3,53.6-24.6,53.3-54.3c-0.3-29.7-24.6-53.6-54.3-53.3c-29.7,0.3-53.5,24.6-53.3,54.3
					C2063.2,100.7,2087.5,124.6,2117.2,124.3"/>
				<path class="st4" d="M2292.2,110.4c30.5-0.3,55-25.2,54.7-55.7c-0.3-30.5-25.2-55-55.7-54.7c-30.5,0.3-55,25.2-54.7,55.7
					C2236.7,86.2,2261.7,110.7,2292.2,110.4"/>
				<path class="st4" d="M2441.8,185.2c32-0.3,57.8-26.5,57.5-58.6c-0.3-32-26.5-57.8-58.5-57.5c-32.1,0.3-57.8,26.5-57.5,58.6
					C2383.5,159.7,2409.7,185.5,2441.8,185.2"/>
				<path class="st4" d="M2524.9,332c35.2-0.3,63.5-29.1,63.2-64.3c-0.3-35.2-29.1-63.5-64.3-63.2c-35.3,0.3-63.5,29.1-63.2,64.3
					C2460.9,304,2489.7,332.3,2524.9,332"/>
				<path class="st4" d="M2511.2,496.8c38.4-0.3,69.2-31.7,68.8-70.1c-0.3-38.3-31.7-69.2-70.1-68.9c-38.3,0.3-69.1,31.7-68.8,70.1
					C2441.4,466.3,2472.8,497.1,2511.2,496.8"/>
				<path class="st4" d="M2401.9,620.5c39.9-0.4,72-33,71.7-73c-0.4-39.9-33-72.1-73-71.7c-40,0.3-72,33.1-71.7,73
					C2329.3,588.8,2362,620.9,2401.9,620.5"/>
				<path class="st4" d="M2236.7,672.4c43.1-0.4,77.8-35.6,77.4-78.7c-0.4-43.1-35.7-77.7-78.8-77.3c-43.1,0.4-77.7,35.6-77.3,78.7
					C2158.4,638.2,2193.7,672.8,2236.7,672.4"/>
				<path class="st4" d="M2348.2,256c22.1-0.2,39.8-18.2,39.6-40.3c-0.2-22.1-18.3-39.8-40.3-39.6c-22.1,0.2-39.8,18.3-39.6,40.3
					C2308,238.4,2326.1,256.2,2348.2,256"/>
				<path class="st4" d="M2264.5,212.8c21.8-0.2,39.3-18,39.1-39.8c-0.2-21.8-18-39.3-39.8-39.1c-21.8,0.2-39.3,18-39.1,39.8
					C2224.9,195.5,2242.7,213,2264.5,212.8"/>
				<path class="st4" d="M2095.4,438.6c17.2-0.2,31-14.2,30.9-31.4c-0.2-17.2-14.3-31.1-31.5-30.9c-17.2,0.1-31,14.2-30.9,31.4
					C2064.1,424.9,2078.2,438.7,2095.4,438.6"/>
				<path class="st4" d="M2169.9,217c20.4-0.2,36.9-16.9,36.7-37.3c-0.2-20.4-16.9-36.8-37.3-36.6c-20.4,0.2-36.8,16.9-36.6,37.3
					C2132.8,200.7,2149.5,217.1,2169.9,217"/>
				<path class="st4" d="M2094.6,274c19.4-0.2,35-16,34.8-35.4c-0.2-19.4-16-34.9-35.4-34.7c-19.4,0.2-34.9,16-34.7,35.4
					C2059.4,258.6,2075.2,274.1,2094.6,274"/>
				<path class="st4" d="M2069.1,359.4c18.5-0.2,33.5-15.4,33.3-33.9c-0.2-18.6-15.4-33.5-33.9-33.3c-18.6,0.1-33.5,15.3-33.3,33.9
					C2035.4,344.6,2050.6,359.5,2069.1,359.4"/>
				<path class="st4" d="M2173.3,487.2c16.1-0.1,29.1-13.4,29-29.5c-0.1-16.2-13.4-29.1-29.5-29c-16.2,0.1-29.1,13.3-29,29.5
					C2143.9,474.3,2157.1,487.3,2173.3,487.2"/>
				<path class="st4" d="M2265,494c15.1-0.1,27.3-12.5,27.1-27.6c-0.1-15.1-12.5-27.2-27.6-27.1c-15.1,0.1-27.2,12.5-27.1,27.6
					C2237.6,482,2249.9,494.1,2265,494"/>
				<path class="st4" d="M2349.8,451.1c14.8-0.1,26.6-12.2,26.5-27c-0.2-14.8-12.2-26.7-27-26.5c-14.8,0.1-26.7,12.2-26.5,27
					C2322.9,439.3,2335.1,451.2,2349.8,451.1"/>
			</g>
		</g>
	</g>
</g>
</svg>
